<svg xmlns="http://www.w3.org/2000/svg" width="102" height="121" viewBox="0 0 102 121" fill="none">
  <path fill-rule="evenodd" clip-rule="evenodd" d="M8.27586 0.5C3.70523 0.5 0 4.20524 0 8.77587V58.4307H0.000609398C4.52302 58.4307 8.19819 62.0582 8.27524 66.5622V66.2926H9.28509V66.7064H8.27647C8.27647 66.7065 8.27647 66.7065 8.27647 66.7066C8.27647 71.2772 4.57124 74.9825 0.000609398 74.9825H0V112.224C0 116.795 3.70523 120.5 8.27586 120.5H93.1034C97.6741 120.5 101.379 116.795 101.379 112.224V74.9825C96.8109 74.9799 93.1082 71.2757 93.1082 66.7066C93.1082 62.1375 96.8109 58.4333 101.379 58.4307V8.77586C101.379 4.20523 97.6741 0.5 93.1035 0.5H8.27586ZM11.3048 66.7064H13.3245V66.2926H11.3048V66.7064ZM15.3442 66.7064H17.3639V66.2926H15.3442V66.7064ZM19.3836 66.7064H21.4033V66.2926H19.3836V66.7064ZM23.423 66.7064H25.4427V66.2926H23.423V66.7064ZM27.4624 66.7064H29.4821V66.2926H27.4624V66.7064ZM31.5018 66.7064H33.5215V66.2926H31.5018V66.7064ZM35.5413 66.7064H37.561V66.2926H35.5413V66.7064ZM39.5807 66.7064H41.6004V66.2926H39.5807V66.7064ZM43.6201 66.7064H45.6398V66.2926H43.6201V66.7064ZM47.6595 66.7064H49.6792V66.2926H47.6595V66.7064ZM51.6989 66.7064H53.7186V66.2926H51.6989V66.7064ZM55.7383 66.7064H57.758V66.2926H55.7383V66.7064ZM59.7777 66.7064H61.7974V66.2926H59.7777V66.7064ZM63.8171 66.7064H65.8368V66.2926H63.8171V66.7064ZM67.8565 66.7064H69.8762V66.2926H67.8565V66.7064ZM71.8959 66.7064H73.9156V66.2926H71.8959V66.7064ZM75.9353 66.7064H77.955V66.2926H75.9353V66.7064ZM79.9747 66.7064H81.9944V66.2926H79.9747V66.7064ZM84.0141 66.7064H86.0339V66.2926H84.0141V66.7064ZM88.0536 66.7064H90.0733V66.2926H88.0536V66.7064ZM92.093 66.7064H93.1028V66.2926H92.093V66.7064Z" fill="#703CCD"/>
</svg>