<svg width="48" height="49" viewBox="0 0 48 49" fill="none" xmlns="http://www.w3.org/2000/svg">
<g clip-path="url(#clip0_4459_21099)">
<g filter="url(#filter0_iii_4459_21099)">
<path d="M24 48.5C37.2548 48.5 48 37.7548 48 24.5C48 11.2452 37.2548 0.5 24 0.5C10.7452 0.5 0 11.2452 0 24.5C0 37.7548 10.7452 48.5 24 48.5Z" fill="#EFCF8F"/>
</g>
<path d="M24.0018 47.9704C36.9642 47.9704 47.4724 37.4623 47.4724 24.4999C47.4724 11.5374 36.9642 1.0293 24.0018 1.0293C11.0394 1.0293 0.53125 11.5374 0.53125 24.4999C0.53125 37.4623 11.0394 47.9704 24.0018 47.9704Z" stroke="#957E50" stroke-width="0.882353"/>
<path opacity="0.6" d="M29.824 17.441C30.8961 17.441 31.7652 16.5719 31.7652 15.4998C31.7652 14.4277 30.8961 13.5586 29.824 13.5586C28.7519 13.5586 27.8828 14.4277 27.8828 15.4998C27.8828 16.5719 28.7519 17.441 29.824 17.441Z" fill="#9E7354" stroke="#745139" stroke-width="0.588235"/>
<path d="M35.824 29.7945C36.8961 29.7945 37.7652 28.9254 37.7652 27.8533C37.7652 26.7812 36.8961 25.9121 35.824 25.9121C34.7519 25.9121 33.8828 26.7812 33.8828 27.8533C33.8828 28.9254 34.7519 29.7945 35.824 29.7945Z" fill="#9E7354" stroke="#745139" stroke-width="0.588235"/>
<path opacity="0.6" d="M29.824 38.6177C30.8961 38.6177 31.7652 37.7486 31.7652 36.6765C31.7652 35.6044 30.8961 34.7354 29.824 34.7354C28.7519 34.7354 27.8828 35.6044 27.8828 36.6765C27.8828 37.7486 28.7519 38.6177 29.824 38.6177Z" fill="#9E7354" stroke="#745139" stroke-width="0.588235"/>
<path d="M10.4141 22.0293C12.0709 22.0293 13.4141 20.6862 13.4141 19.0293C13.4141 17.3724 12.0709 16.0293 10.4141 16.0293C8.75721 16.0293 7.41406 17.3724 7.41406 19.0293C7.41406 20.6862 8.75721 22.0293 10.4141 22.0293Z" fill="#9E7354" stroke="#745139" stroke-width="0.588235"/>
<path d="M13.9414 34.0293C15.5983 34.0293 16.9414 32.6862 16.9414 31.0293C16.9414 29.3724 15.5983 28.0293 13.9414 28.0293C12.2846 28.0293 10.9414 29.3724 10.9414 31.0293C10.9414 32.6862 12.2846 34.0293 13.9414 34.0293Z" fill="#9E7354" stroke="#745139" stroke-width="0.588235"/>
<path d="M4.94164 28.7358C5.52641 28.7358 6.00046 28.2618 6.00046 27.677C6.00046 27.0922 5.52641 26.6182 4.94164 26.6182C4.35686 26.6182 3.88281 27.0922 3.88281 27.677C3.88281 28.2618 4.35686 28.7358 4.94164 28.7358Z" fill="#9E7354" stroke="#745139" stroke-width="0.588235"/>
<path d="M21.176 31.5591C21.7608 31.5591 22.2348 31.085 22.2348 30.5002C22.2348 29.9155 21.7608 29.4414 21.176 29.4414C20.5912 29.4414 20.1172 29.9155 20.1172 30.5002C20.1172 31.085 20.5912 31.5591 21.176 31.5591Z" fill="#9E7354" stroke="#745139" stroke-width="0.588235"/>
<path opacity="0.5" d="M21.176 11.4409C21.7608 11.4409 22.2348 10.9668 22.2348 10.3821C22.2348 9.79729 21.7608 9.32324 21.176 9.32324C20.5912 9.32324 20.1172 9.79729 20.1172 10.3821C20.1172 10.9668 20.5912 11.4409 21.176 11.4409Z" fill="#9E7354" stroke="#745139" stroke-width="0.588235"/>
</g>
<defs>
<filter id="filter0_iii_4459_21099" x="-1" y="-3.5" width="51" height="55.18" filterUnits="userSpaceOnUse" color-interpolation-filters="sRGB">
<feFlood flood-opacity="0" result="BackgroundImageFix"/>
<feBlend mode="normal" in="SourceGraphic" in2="BackgroundImageFix" result="shape"/>
<feColorMatrix in="SourceAlpha" type="matrix" values="0 0 0 0 0 0 0 0 0 0 0 0 0 0 0 0 0 0 127 0" result="hardAlpha"/>
<feOffset dx="-1" dy="3.18"/>
<feGaussianBlur stdDeviation="2"/>
<feComposite in2="hardAlpha" operator="arithmetic" k2="-1" k3="1"/>
<feColorMatrix type="matrix" values="0 0 0 0 1 0 0 0 0 1 0 0 0 0 1 0 0 0 0.45 0"/>
<feBlend mode="normal" in2="shape" result="effect1_innerShadow_4459_21099"/>
<feColorMatrix in="SourceAlpha" type="matrix" values="0 0 0 0 0 0 0 0 0 0 0 0 0 0 0 0 0 0 127 0" result="hardAlpha"/>
<feOffset dx="0.294118" dy="-1.17647"/>
<feGaussianBlur stdDeviation="0.882353"/>
<feComposite in2="hardAlpha" operator="arithmetic" k2="-1" k3="1"/>
<feColorMatrix type="matrix" values="0 0 0 0 0 0 0 0 0 0 0 0 0 0 0 0 0 0 0.25 0"/>
<feBlend mode="normal" in2="effect1_innerShadow_4459_21099" result="effect2_innerShadow_4459_21099"/>
<feColorMatrix in="SourceAlpha" type="matrix" values="0 0 0 0 0 0 0 0 0 0 0 0 0 0 0 0 0 0 127 0" result="hardAlpha"/>
<feOffset dx="2" dy="-4"/>
<feGaussianBlur stdDeviation="2"/>
<feComposite in2="hardAlpha" operator="arithmetic" k2="-1" k3="1"/>
<feColorMatrix type="matrix" values="0 0 0 0 0 0 0 0 0 0 0 0 0 0 0 0 0 0 0.08 0"/>
<feBlend mode="normal" in2="effect2_innerShadow_4459_21099" result="effect3_innerShadow_4459_21099"/>
</filter>
<clipPath id="clip0_4459_21099">
<rect width="48" height="48" fill="white" transform="translate(0 0.5)"/>
</clipPath>
</defs>
</svg>
