<svg width="14" height="15" viewBox="0 0 14 15" fill="none" xmlns="http://www.w3.org/2000/svg">
<path d="M12.7695 3.04688C13.2799 3.28385 13.5443 3.67578 13.5625 4.22266C13.5078 6.55599 13.043 8.50651 12.168 10.0742C11.293 11.6419 10.3451 12.8086 9.32422 13.5742C8.30339 14.3581 7.52865 14.75 7 14.75C6.48958 14.75 5.71484 14.3672 4.67578 13.6016C3.65495 12.8177 2.70703 11.651 1.83203 10.1016C0.957031 8.53385 0.492188 6.57422 0.4375 4.22266C0.455729 3.67578 0.729167 3.28385 1.25781 3.04688L6.50781 0.859375C6.67188 0.786458 6.83594 0.75 7 0.75C7.18229 0.75 7.35547 0.786458 7.51953 0.859375L12.7695 3.04688ZM9.625 6.21875C9.625 6.10938 9.57943 5.97266 9.48828 5.80859C9.39714 5.66276 9.22396 5.57161 8.96875 5.53516C8.76823 5.53516 8.60417 5.60807 8.47656 5.75391L6.31641 8.29688L5.49609 7.47656C5.36849 7.34896 5.21354 7.28516 5.03125 7.28516C4.63021 7.33984 4.41146 7.55859 4.375 7.94141C4.375 8.14193 4.4388 8.29688 4.56641 8.40625L5.87891 9.71875C6.00651 9.84635 6.16146 9.91016 6.34375 9.91016C6.47135 9.94661 6.63542 9.88281 6.83594 9.71875L9.46094 6.65625C9.57031 6.52865 9.625 6.38281 9.625 6.21875Z" fill="#24BD25"/>
</svg>
