<svg width="16" height="16" viewBox="0 0 16 16" fill="none" xmlns="http://www.w3.org/2000/svg">
<path d="M15.2812 11.3438L14.5312 12.6562C14.2604 13.0312 13.9167 13.125 13.5 12.9375L9.46875 10.5938V15.25C9.42708 15.7083 9.17708 15.9583 8.71875 16H7.21875C6.76042 15.9583 6.51042 15.7083 6.46875 15.25V10.5938L2.46875 12.9375C2.05208 13.125 1.70833 13.0312 1.4375 12.6562L0.6875 11.3438C0.5 10.9271 0.59375 10.5938 0.96875 10.3438L5 8L0.96875 5.6875C0.59375 5.41667 0.5 5.07292 0.6875 4.65625L1.4375 3.34375C1.70833 2.96875 2.05208 2.875 2.46875 3.0625L6.5 5.40625L6.46875 0.75C6.51042 0.291667 6.76042 0.0416667 7.21875 0H8.71875C9.17708 0.0416667 9.42708 0.291667 9.46875 0.75V5.40625L13.5 3.0625C13.9167 2.875 14.2604 2.96875 14.5312 3.34375L15.2812 4.65625C15.4688 5.07292 15.375 5.40625 15 5.65625L11 8L15.0312 10.3438C15.4062 10.5938 15.4896 10.9271 15.2812 11.3438Z" fill="#215ADA"/>
</svg>
