<svg width="1320" height="144" viewBox="0 0 1320 144" fill="none" xmlns="http://www.w3.org/2000/svg">
<path fill-rule="evenodd" clip-rule="evenodd" d="M715.011 144L715.011 3.05176e-05H715.351L715.351 144H715.011Z" fill="white" fill-opacity="0.2"/>
<path fill-rule="evenodd" clip-rule="evenodd" d="M681.022 144L681.022 3.05176e-05H681.362L681.362 144H681.022Z" fill="white" fill-opacity="0.2"/>
<path fill-rule="evenodd" clip-rule="evenodd" d="M647.033 144L647.033 3.05176e-05H647.373L647.373 144H647.033Z" fill="white" fill-opacity="0.2"/>
<path fill-rule="evenodd" clip-rule="evenodd" d="M613.044 144L613.044 3.05176e-05H613.384L613.384 144H613.044Z" fill="white" fill-opacity="0.2"/>
<path fill-rule="evenodd" clip-rule="evenodd" d="M579.055 144L579.055 3.05176e-05H579.395L579.395 144H579.055Z" fill="white" fill-opacity="0.2"/>
<path fill-rule="evenodd" clip-rule="evenodd" d="M545.066 144L545.066 3.05176e-05H545.406L545.406 144H545.066Z" fill="white" fill-opacity="0.2"/>
<path fill-rule="evenodd" clip-rule="evenodd" d="M511.077 144L511.077 3.05176e-05H511.417L511.417 144H511.077Z" fill="white" fill-opacity="0.2"/>
<path fill-rule="evenodd" clip-rule="evenodd" d="M477.088 144L477.088 3.05176e-05H477.428L477.428 144H477.088Z" fill="white" fill-opacity="0.2"/>
<path fill-rule="evenodd" clip-rule="evenodd" d="M443.099 144L443.099 3.05176e-05H443.439L443.439 144H443.099Z" fill="white" fill-opacity="0.2"/>
<path fill-rule="evenodd" clip-rule="evenodd" d="M409.11 21.0625L749 21.0626V21.4021L409.11 21.4021V21.0625Z" fill="white" fill-opacity="0.2"/>
<path fill-rule="evenodd" clip-rule="evenodd" d="M409.11 55.0208L749 55.0209V55.3605L409.11 55.3604V55.0208Z" fill="white" fill-opacity="0.2"/>
<path fill-rule="evenodd" clip-rule="evenodd" d="M409.11 88.9792L749 88.9792V89.3188L409.11 89.3188V88.9792Z" fill="white" fill-opacity="0.2"/>
<path fill-rule="evenodd" clip-rule="evenodd" d="M409.11 122.938H749V123.277L409.11 123.277V122.938Z" fill="white" fill-opacity="0.2"/>
<path fill-rule="evenodd" clip-rule="evenodd" d="M409.11 144L409.11 1.52588e-05H409.45L409.45 144H409.11Z" fill="white" fill-opacity="0.2"/>
<path fill-rule="evenodd" clip-rule="evenodd" d="M375.121 144L375.121 1.52588e-05H375.461L375.461 144H375.121Z" fill="white" fill-opacity="0.2"/>
<path fill-rule="evenodd" clip-rule="evenodd" d="M341.132 144L341.132 1.52588e-05H341.472L341.472 144H341.132Z" fill="white" fill-opacity="0.2"/>
<path fill-rule="evenodd" clip-rule="evenodd" d="M307.143 144L307.143 1.52588e-05H307.483L307.483 144H307.143Z" fill="white" fill-opacity="0.2"/>
<path fill-rule="evenodd" clip-rule="evenodd" d="M273.154 144L273.154 1.52588e-05H273.494L273.494 144H273.154Z" fill="white" fill-opacity="0.2"/>
<path fill-rule="evenodd" clip-rule="evenodd" d="M239.165 144L239.165 1.52588e-05H239.505L239.504 144H239.165Z" fill="white" fill-opacity="0.2"/>
<path fill-rule="evenodd" clip-rule="evenodd" d="M205.176 144L205.176 1.52588e-05H205.516L205.515 144H205.176Z" fill="white" fill-opacity="0.2"/>
<path fill-rule="evenodd" clip-rule="evenodd" d="M171.187 144L171.187 0H171.527L171.526 144H171.187Z" fill="white" fill-opacity="0.2"/>
<path fill-rule="evenodd" clip-rule="evenodd" d="M137.198 144L137.198 0H137.538L137.537 144H137.198Z" fill="white" fill-opacity="0.2"/>
<path fill-rule="evenodd" clip-rule="evenodd" d="M103.209 21.0625L443.099 21.0625V21.4021H103.209V21.0625Z" fill="white" fill-opacity="0.2"/>
<path fill-rule="evenodd" clip-rule="evenodd" d="M103.209 55.0208L443.099 55.0209V55.3604L103.209 55.3604V55.0208Z" fill="white" fill-opacity="0.2"/>
<path fill-rule="evenodd" clip-rule="evenodd" d="M103.209 88.9792L443.099 88.9792V89.3188L103.209 89.3188V88.9792Z" fill="white" fill-opacity="0.2"/>
<path fill-rule="evenodd" clip-rule="evenodd" d="M103.209 122.938L443.099 122.938V123.277L103.209 123.277V122.938Z" fill="white" fill-opacity="0.2"/>
<path fill-rule="evenodd" clip-rule="evenodd" d="M103.548 144L103.549 0H103.888L103.888 144H103.548Z" fill="white" fill-opacity="0.2"/>
<path fill-rule="evenodd" clip-rule="evenodd" d="M69.5594 144L69.5595 0H69.8994L69.8993 144H69.5594Z" fill="white" fill-opacity="0.2"/>
<path fill-rule="evenodd" clip-rule="evenodd" d="M35.5703 144L35.5704 0H35.9103L35.9102 144H35.5703Z" fill="white" fill-opacity="0.2"/>
<path fill-rule="evenodd" clip-rule="evenodd" d="M4.46794e-06 21.0625L137.538 21.0625V21.4021H4.4531e-06L4.46794e-06 21.0625Z" fill="white" fill-opacity="0.2"/>
<path fill-rule="evenodd" clip-rule="evenodd" d="M2.98358e-06 55.0208L137.538 55.0208V55.3604L2.96873e-06 55.3604L2.98358e-06 55.0208Z" fill="white" fill-opacity="0.2"/>
<path fill-rule="evenodd" clip-rule="evenodd" d="M1.49921e-06 88.9792L137.538 88.9792V89.3188L1.48437e-06 89.3188L1.49921e-06 88.9792Z" fill="white" fill-opacity="0.2"/>
<path fill-rule="evenodd" clip-rule="evenodd" d="M1.4843e-08 122.938L137.538 122.938V123.277H0L1.4843e-08 122.938Z" fill="white" fill-opacity="0.2"/>
<path fill-rule="evenodd" clip-rule="evenodd" d="M1291.05 144L1291.05 3.05176e-05H1291.39V144H1291.05Z" fill="white" fill-opacity="0.2"/>
<path fill-rule="evenodd" clip-rule="evenodd" d="M1257.07 144L1257.07 3.05176e-05H1257.41V144H1257.07Z" fill="white" fill-opacity="0.2"/>
<path fill-rule="evenodd" clip-rule="evenodd" d="M1223.08 144L1223.08 3.05176e-05H1223.42V72.0001L1223.42 144H1223.08Z" fill="white" fill-opacity="0.2"/>
<path fill-rule="evenodd" clip-rule="evenodd" d="M1189.09 144L1189.09 3.05176e-05H1189.43L1189.43 144H1189.09Z" fill="white" fill-opacity="0.2"/>
<path fill-rule="evenodd" clip-rule="evenodd" d="M1155.1 144L1155.1 3.05176e-05H1155.44L1155.44 144H1155.1Z" fill="white" fill-opacity="0.2"/>
<path fill-rule="evenodd" clip-rule="evenodd" d="M1121.11 21.0625L1320 21.0626V21.4021L1121.11 21.4021V21.0625Z" fill="white" fill-opacity="0.2"/>
<path fill-rule="evenodd" clip-rule="evenodd" d="M1121.11 55.0208L1320 55.0209V55.3605L1121.11 55.3604V55.0208Z" fill="white" fill-opacity="0.2"/>
<path fill-rule="evenodd" clip-rule="evenodd" d="M1121.11 88.9792L1320 88.9792V89.3188L1121.11 89.3188V88.9792Z" fill="white" fill-opacity="0.2"/>
<path fill-rule="evenodd" clip-rule="evenodd" d="M1121.11 122.938H1320V123.277L1121.11 123.277V122.938Z" fill="white" fill-opacity="0.2"/>
<path fill-rule="evenodd" clip-rule="evenodd" d="M1121.11 144L1121.11 1.52588e-05H1121.45L1121.45 144H1121.11Z" fill="white" fill-opacity="0.2"/>
<path fill-rule="evenodd" clip-rule="evenodd" d="M1087.12 144L1087.12 1.52588e-05H1087.46L1087.46 144H1087.12Z" fill="white" fill-opacity="0.2"/>
<path fill-rule="evenodd" clip-rule="evenodd" d="M1053.13 144L1053.13 1.52588e-05H1053.47L1053.47 144H1053.13Z" fill="white" fill-opacity="0.2"/>
<path fill-rule="evenodd" clip-rule="evenodd" d="M1019.14 144L1019.14 1.52588e-05H1019.48L1019.48 144H1019.14Z" fill="white" fill-opacity="0.2"/>
<path fill-rule="evenodd" clip-rule="evenodd" d="M985.154 144L985.154 1.52588e-05H985.494L985.494 144H985.154Z" fill="white" fill-opacity="0.2"/>
<path fill-rule="evenodd" clip-rule="evenodd" d="M951.165 144L951.165 1.52588e-05H951.505L951.505 144H951.165Z" fill="white" fill-opacity="0.2"/>
<path fill-rule="evenodd" clip-rule="evenodd" d="M917.176 144L917.176 1.52588e-05H917.516L917.515 144H917.176Z" fill="white" fill-opacity="0.2"/>
<path fill-rule="evenodd" clip-rule="evenodd" d="M883.187 144L883.187 0H883.527L883.526 144H883.187Z" fill="white" fill-opacity="0.2"/>
<path fill-rule="evenodd" clip-rule="evenodd" d="M849.198 144L849.198 0H849.538L849.537 144H849.198Z" fill="white" fill-opacity="0.2"/>
<path fill-rule="evenodd" clip-rule="evenodd" d="M815.209 21.0625L1155.1 21.0625V21.4021H815.209V21.0625Z" fill="white" fill-opacity="0.2"/>
<path fill-rule="evenodd" clip-rule="evenodd" d="M815.209 55.0208L1155.1 55.0209V55.3604L815.209 55.3604V55.0208Z" fill="white" fill-opacity="0.2"/>
<path fill-rule="evenodd" clip-rule="evenodd" d="M815.209 88.9792L1155.1 88.9792V89.3188L815.209 89.3188V88.9792Z" fill="white" fill-opacity="0.2"/>
<path fill-rule="evenodd" clip-rule="evenodd" d="M815.209 122.938L1155.1 122.938V123.277L815.209 123.277V122.938Z" fill="white" fill-opacity="0.2"/>
<path fill-rule="evenodd" clip-rule="evenodd" d="M815.548 144L815.549 0H815.888L815.888 144H815.548Z" fill="white" fill-opacity="0.2"/>
<path fill-rule="evenodd" clip-rule="evenodd" d="M781.559 144L781.56 0H781.899L781.899 144H781.559Z" fill="white" fill-opacity="0.2"/>
<path fill-rule="evenodd" clip-rule="evenodd" d="M747.57 144L747.57 0H747.91L747.91 144H747.57Z" fill="white" fill-opacity="0.2"/>
<path fill-rule="evenodd" clip-rule="evenodd" d="M718 21.0625L849.538 21.0625V21.4021H718V21.0625Z" fill="white" fill-opacity="0.2"/>
<path fill-rule="evenodd" clip-rule="evenodd" d="M718 55.0208L849.538 55.0208V55.3604L718 55.3604V55.0208Z" fill="white" fill-opacity="0.2"/>
<path fill-rule="evenodd" clip-rule="evenodd" d="M718 88.9792L849.538 88.9792V89.3188L718 89.3188V88.9792Z" fill="white" fill-opacity="0.2"/>
<path fill-rule="evenodd" clip-rule="evenodd" d="M718 122.938L849.538 122.938V123.277H718V122.938Z" fill="white" fill-opacity="0.2"/>
</svg>
