<svg width="22" height="20" viewBox="0 0 22 20" fill="none" xmlns="http://www.w3.org/2000/svg">
<path fill-rule="evenodd" clip-rule="evenodd" d="M13.8366 4.48999C15.1745 2.49 16.8396 2.81959e-07 22 0L22 20C16.8396 20 15.1745 17.51 13.8366 15.51C12.9594 14.1983 12.3805 13.3333 11 13.3333C9.6195 13.3333 9.04063 14.1983 8.16475 15.51C6.82551 17.51 5.16039 20 1.14441e-05 20L-6.99382e-07 1.20206e-06C5.16038 9.20104e-07 6.8255 2.49 8.16475 4.48999C9.04063 5.8 9.6195 6.66667 11 6.66667C12.3805 6.66667 12.9594 5.8 13.8366 4.48999Z" fill="#E7E9EC"/>
</svg>
