<svg width="22" height="18" viewBox="0 0 22 18" fill="none" xmlns="http://www.w3.org/2000/svg">
<path fill-rule="evenodd" clip-rule="evenodd" d="M13.8366 4.04099C15.1745 2.241 16.8396 -1.68178e-06 22 -1.90735e-06L22 18C16.8396 18 15.1745 15.759 13.8366 13.959C12.9594 12.7785 12.3805 12 11 12C9.6195 12 9.04063 12.7785 8.16475 13.959C6.82551 15.759 5.16039 18 1.14441e-05 18L-7.86805e-07 -9.45698e-07C5.16038 -1.17127e-06 6.8255 2.241 8.16475 4.04099C9.04063 5.21999 9.6195 6 11 6C12.3805 6 12.9594 5.21999 13.8366 4.04099Z" fill="#215ADA"/>
</svg>
