<svg width="22" height="14" viewBox="0 0 22 14" fill="none" xmlns="http://www.w3.org/2000/svg">
<path fill-rule="evenodd" clip-rule="evenodd" d="M13.8366 3.14299C15.1745 1.743 16.8396 2.25567e-07 22 0L22 14C16.8396 14 15.1745 12.257 13.8366 10.857C12.9594 9.93884 12.3805 9.33334 11 9.33334C9.6195 9.33334 9.04063 9.93884 8.16475 10.857C6.82551 12.257 5.16039 14 1.14441e-05 14L-6.11959e-07 9.61651e-07C5.16038 7.36083e-07 6.8255 1.743 8.16475 3.14299C9.04063 4.06 9.6195 4.66667 11 4.66667C12.3805 4.66667 12.9594 4.06 13.8366 3.14299Z" fill="#E9F1FC"/>
</svg>
