<svg width="300" height="51" viewBox="0 0 300 51" fill="none" xmlns="http://www.w3.org/2000/svg">
<path d="M299.03 50.036C182.642 50.0497 1 50.0711 1 50.0711V17.0693C1 7.06934 11.5 2.06934 17 2.07109H247.5C258.7 1.67109 264 4.56934 267 10.5711L277.5 38.5711C281.534 47.9838 292.918 49.4995 299.03 50.036Z" fill="#F9F9F9"/>
<path fill-rule="evenodd" clip-rule="evenodd" d="M260.743 1.97716C264.079 3.51041 266.308 5.9155 267.894 9.08933L267.918 9.13623L278.428 37.1634C280.55 42.0967 284.304 44.8445 288.233 46.3529C292.19 47.8716 296.295 48.118 298.97 48.0369C298.97 48.0369 299.007 49.2553 299.03 50.036C296.205 50.1216 291.81 49.868 287.517 48.22C283.202 46.5639 278.961 43.4839 276.581 37.9304L276.572 37.9092L266.082 9.93714C264.671 7.13324 262.756 5.1035 259.907 3.79441C257.008 2.46163 253.06 1.83852 247.536 2.0358L247.518 2.03644H17C14.4927 2.03564 10.7 3.19832 7.53987 5.58312C4.40678 7.94751 2 11.4278 2 16.0347V50.0711H0V16.0347C0 10.6416 2.84322 6.62185 6.33513 3.98669C9.79987 1.37201 14.0073 0.0355792 17 0.0364406H247.482C253.149 -0.164321 257.446 0.461965 260.743 1.97716Z" fill="#E7E9EC"/>
</svg>
