<svg width="85" height="90" viewBox="0 0 85 90" fill="none" xmlns="http://www.w3.org/2000/svg">
<path d="M40.1573 88.8695L1.27809 67.5924C0.490038 67.1611 0 66.3343 0 65.436V25.2086C0 23.0243 2.68296 21.9093 4.32751 23.3468C35.7267 50.7937 65.1252 37.6526 79.8465 24.1389C81.534 22.5898 84.5011 23.7403 84.5011 26.031V65.4051C84.5011 66.3198 83.9933 67.1588 83.1829 67.583L42.4775 88.891C41.7492 89.2722 40.8785 89.2642 40.1573 88.8695Z" fill="#215ADA"/>
<path d="M40.1573 88.8695L1.27809 67.5924C0.490038 67.1611 0 66.3343 0 65.436V25.2086C0 23.0243 2.68296 21.9093 4.32751 23.3468C35.7267 50.7937 65.1252 37.6526 79.8465 24.1389C81.534 22.5898 84.5011 23.7403 84.5011 26.031V65.4051C84.5011 66.3198 83.9933 67.1588 83.1829 67.583L42.4775 88.891C41.7492 89.2722 40.8785 89.2642 40.1573 88.8695Z" fill="url(#paint0_linear_296_3462)"/>
<path d="M61.5914 24.6797C64.3174 24.6797 66.577 22.4483 66.0354 19.7766C65.721 18.2254 65.2573 16.7044 64.6487 15.2352C63.4084 12.2409 61.5905 9.52023 59.2988 7.22851C57.0071 4.93679 54.2864 3.1189 51.2922 1.87863C48.2979 0.638359 45.0886 -1.41668e-07 41.8477 0C38.6067 1.41668e-07 35.3974 0.638359 32.4031 1.87863C29.4089 3.1189 26.6882 4.93679 24.3965 7.22851C22.1048 9.52024 20.2869 12.2409 19.0466 15.2352C18.438 16.7044 17.9744 18.2254 17.6599 19.7766C17.1183 22.4483 19.3779 24.6797 22.1039 24.6797C24.8299 24.6797 26.963 22.4106 27.8549 19.8346C27.9507 19.5581 28.0547 19.2841 28.167 19.013C28.9112 17.2164 30.0019 15.584 31.377 14.209C32.752 12.834 34.3844 11.7432 36.181 10.9991C37.9775 10.2549 39.9031 9.87187 41.8477 9.87187C43.7922 9.87187 45.7178 10.2549 47.5144 10.9991C49.3109 11.7432 50.9433 12.834 52.3184 14.209C53.6934 15.584 54.7841 17.2164 55.5283 19.013C55.6406 19.2841 55.7446 19.5581 55.8404 19.8346C56.7323 22.4106 58.8654 24.6797 61.5914 24.6797Z" fill="#D9D9D9"/>
<path d="M61.5914 24.6797C64.3174 24.6797 66.577 22.4483 66.0354 19.7766C65.721 18.2254 65.2573 16.7044 64.6487 15.2352C63.4084 12.2409 61.5905 9.52023 59.2988 7.22851C57.0071 4.93679 54.2864 3.1189 51.2922 1.87863C48.2979 0.638359 45.0886 -1.41668e-07 41.8477 0C38.6067 1.41668e-07 35.3974 0.638359 32.4031 1.87863C29.4089 3.1189 26.6882 4.93679 24.3965 7.22851C22.1048 9.52024 20.2869 12.2409 19.0466 15.2352C18.438 16.7044 17.9744 18.2254 17.6599 19.7766C17.1183 22.4483 19.3779 24.6797 22.1039 24.6797C24.8299 24.6797 26.963 22.4106 27.8549 19.8346C27.9507 19.5581 28.0547 19.2841 28.167 19.013C28.9112 17.2164 30.0019 15.584 31.377 14.209C32.752 12.834 34.3844 11.7432 36.181 10.9991C37.9775 10.2549 39.9031 9.87187 41.8477 9.87187C43.7922 9.87187 45.7178 10.2549 47.5144 10.9991C49.3109 11.7432 50.9433 12.834 52.3184 14.209C53.6934 15.584 54.7841 17.2164 55.5283 19.013C55.6406 19.2841 55.7446 19.5581 55.8404 19.8346C56.7323 22.4106 58.8654 24.6797 61.5914 24.6797Z" fill="url(#paint1_linear_296_3462)"/>
<path fill-rule="evenodd" clip-rule="evenodd" d="M43.8061 58.7175L41.8619 55.0342L39.9163 58.7175C39.7786 58.9869 39.5796 59.2201 39.3353 59.3985C39.0895 59.5778 38.8055 59.6976 38.5055 59.7487L34.499 60.531L37.2962 63.8655C37.4848 64.0713 37.627 64.3154 37.713 64.5811C37.7982 64.8462 37.8249 65.1267 37.7912 65.4032L37.259 69.7021L40.9487 67.9246C41.2338 67.7884 41.5458 67.7179 41.8619 67.7181C42.1585 67.7179 42.451 67.7886 42.7147 67.9246L46.4878 69.5918L45.9543 65.3416C45.9206 65.0651 45.9473 64.7846 46.0325 64.5196C46.1185 64.2538 46.2607 64.0098 46.4493 63.8039L49.2234 60.5259L45.2169 59.7435C44.9169 59.6925 44.6329 59.5727 44.3871 59.3934C44.1434 59.2164 43.9445 58.9851 43.8061 58.7175Z" fill="white" stroke="white" stroke-width="1.60954" stroke-linecap="round" stroke-linejoin="round"/>
<g opacity="0.4">
<path fill-rule="evenodd" clip-rule="evenodd" d="M59.2374 55.7238L57.9058 53.2012L56.5734 55.7238C56.4791 55.9082 56.3428 56.068 56.1755 56.1902C56.0072 56.313 55.8126 56.395 55.6072 56.43L52.8633 56.9657L54.7789 59.2494C54.9082 59.3904 55.0055 59.5575 55.0644 59.7395C55.1228 59.9211 55.1411 60.1132 55.118 60.3026L54.7535 63.2468L57.2805 62.0294C57.4757 61.9361 57.6894 61.8878 57.9058 61.888C58.109 61.8878 58.3093 61.9363 58.4899 62.0294L61.074 63.1712L60.7086 60.2604C60.6855 60.071 60.7038 59.8789 60.7622 59.6974C60.821 59.5154 60.9184 59.3482 61.0477 59.2073L62.9475 56.9622L60.2036 56.4264C59.9981 56.3915 59.8037 56.3094 59.6353 56.1867C59.4684 56.0654 59.3322 55.907 59.2374 55.7238Z" fill="white" stroke="white" stroke-width="1.60954" stroke-linecap="round" stroke-linejoin="round"/>
</g>
<g opacity="0.4">
<path fill-rule="evenodd" clip-rule="evenodd" d="M27.1505 55.7238L25.8189 53.2012L24.4865 55.7238C24.3922 55.9082 24.2559 56.068 24.0886 56.1902C23.9202 56.313 23.7257 56.395 23.5203 56.43L20.7764 56.9657L22.692 59.2494C22.8212 59.3904 22.9186 59.5575 22.9775 59.7395C23.0359 59.9211 23.0542 60.1132 23.0311 60.3026L22.6666 63.2468L25.1935 62.0294C25.3888 61.9361 25.6025 61.8878 25.8189 61.888C26.0221 61.8878 26.2224 61.9363 26.403 62.0294L28.9871 63.1712L28.6217 60.2604C28.5986 60.071 28.6169 59.8789 28.6753 59.6974C28.7341 59.5154 28.8315 59.3482 28.9607 59.2073L30.8606 56.9622L28.1167 56.4264C27.9112 56.3915 27.7167 56.3094 27.5484 56.1867C27.3815 56.0654 27.2453 55.907 27.1505 55.7238Z" fill="white" stroke="white" stroke-width="1.60954" stroke-linecap="round" stroke-linejoin="round"/>
</g>
<g opacity="0.4">
<path fill-rule="evenodd" clip-rule="evenodd" d="M68.2783 46.0757L67.1795 43.9941L66.08 46.0757C66.0023 46.2279 65.8898 46.3598 65.7517 46.4606C65.6128 46.5619 65.4523 46.6296 65.2828 46.6585L63.0186 47.1006L64.5993 48.985C64.7059 49.1013 64.7863 49.2393 64.8349 49.3894C64.8831 49.5393 64.8981 49.6978 64.8791 49.854L64.5783 52.2835L66.6635 51.279C66.8246 51.202 67.001 51.1621 67.1795 51.1623C67.3472 51.1621 67.5125 51.2021 67.6615 51.279L69.7938 52.2212L69.4923 49.8192C69.4733 49.663 69.4883 49.5045 69.5365 49.3547C69.5851 49.2045 69.6655 49.0665 69.7721 48.9502L71.3398 47.0977L69.0756 46.6556C68.906 46.6267 68.7456 46.559 68.6066 46.4577C68.4689 46.3577 68.3565 46.2269 68.2783 46.0757Z" fill="white" stroke="white" stroke-width="1.60954" stroke-linecap="round" stroke-linejoin="round"/>
</g>
<g opacity="0.4">
<path fill-rule="evenodd" clip-rule="evenodd" d="M17.7832 46.0757L16.6844 43.9941L15.5849 46.0757C15.5071 46.2279 15.3947 46.3598 15.2566 46.4606C15.1177 46.5619 14.9572 46.6296 14.7877 46.6585L12.5234 47.1006L14.1042 48.985C14.2108 49.1013 14.2912 49.2393 14.3397 49.3894C14.3879 49.5393 14.403 49.6978 14.384 49.854L14.0832 52.2835L16.1684 51.279C16.3295 51.202 16.5058 51.1621 16.6844 51.1623C16.8521 51.1621 17.0174 51.2021 17.1664 51.279L19.2987 52.2212L18.9972 49.8192C18.9781 49.663 18.9932 49.5045 19.0414 49.3547C19.09 49.2045 19.1704 49.0665 19.277 48.9502L20.8447 47.0977L18.5805 46.6556C18.4109 46.6267 18.2505 46.559 18.1115 46.4577C17.9738 46.3577 17.8614 46.2269 17.7832 46.0757Z" fill="white" stroke="white" stroke-width="1.60954" stroke-linecap="round" stroke-linejoin="round"/>
</g>
<defs>
<linearGradient id="paint0_linear_296_3462" x1="2.24456" y1="54.4078" x2="84.5011" y2="54.4078" gradientUnits="userSpaceOnUse">
<stop stop-color="#215ADA"/>
<stop offset="1" stop-color="#001A53"/>
</linearGradient>
<linearGradient id="paint1_linear_296_3462" x1="16.9543" y1="25.4758" x2="66.7412" y2="25.4758" gradientUnits="userSpaceOnUse">
<stop stop-color="#FF710E"/>
<stop offset="0.488306" stop-color="#CE4149"/>
<stop offset="1" stop-color="#2BA4FF"/>
</linearGradient>
</defs>
</svg>
