<svg width="40" height="40" viewBox="0 0 40 40" fill="none" xmlns="http://www.w3.org/2000/svg">
<g clip-path="url(#clip0_358_974)">
<path d="M9.33399 5.20215C4.17907 5.20215 0.000244141 9.38215 0.000244141 14.5389C0.000244141 19.6938 4.17907 23.8738 9.33399 23.8738C9.33399 23.8738 9.28884 27.3419 6.47134 32.3335C6.15837 33.3336 6.71626 34.3987 7.71704 34.7099C8.42712 34.9332 9.17431 34.7161 9.65681 34.2107C16.1353 27.1248 18.6713 18.7851 18.6713 14.5389C18.6713 9.38215 14.4925 5.20215 9.33399 5.20215Z" fill="#BCD2F4"/>
<path d="M30.6629 5.20215C25.5079 5.20215 21.3291 9.38223 21.3291 14.5389C21.3291 19.6938 25.5079 23.8738 30.6629 23.8738C30.6629 23.8738 30.6177 27.3419 27.8002 32.3335C27.4872 33.3336 28.0452 34.3987 29.0459 34.7099C29.756 34.9332 30.5032 34.7161 30.9856 34.2107C37.4642 27.1248 40.0002 18.7851 40.0002 14.5389C40.0002 9.38215 35.8214 5.20215 30.6629 5.20215Z" fill="#BCD2F4"/>
</g>
<defs>
<clipPath id="clip0_358_974">
<rect width="40" height="40" fill="white" transform="translate(0.000244141)"/>
</clipPath>
</defs>
</svg>
