<svg width="104" height="54" viewBox="0 0 104 54" fill="none" xmlns="http://www.w3.org/2000/svg">
<path d="M2.97446 52.7053C0.398874 41.1289 -0.805964 34.985 10.7081 31.3595C16.4762 29.5432 19.8903 30.8075 22.6307 35.554C24.4524 38.7093 19.2928 40.7433 17.4234 37.5053C14.9839 33.2801 14.2925 28.1861 16.1992 23.5001C20.652 12.5567 38.1772 11.9507 47.3723 14.4115C51.0258 15.3893 55.4121 21.528 49.3421 21.4802C45.0552 21.4465 43.8191 14.8265 44.7532 11.7035C48.9847 -2.44355 65.6685 0.575801 76.2698 3.41309C79.832 4.36645 87.2799 6.97724 89.8506 9.46368C91.9342 11.479 92.5591 0.496951 91.7706 6.18645C91.3144 9.47888 89.6743 14.8329 86.8397 16.9462C85.4723 17.9656 94.6815 15.0888 96.2292 14.9248C98.826 14.6495 105.034 14.3751 101.951 12.442C99.3982 10.8414 95.367 7.94606 93.9344 5.46473" stroke="white" stroke-width="2" stroke-linecap="round"/>
</svg>
