<svg width="64" height="35" viewBox="0 0 64 35" fill="none" xmlns="http://www.w3.org/2000/svg">
<path d="M60.4959 33.06C64.3818 25.3457 64.0752 16.6654 51.7944 10.3453C42.334 5.47679 30.8206 9.11492 32.4095 18.9079C32.7902 21.2543 36.0138 23.5485 38.3267 24.277C41.9855 25.4295 44.2007 24.0431 45.1203 21.264C46.7909 16.2154 43.9307 7.50662 37.0524 3.95698C26.2884 -1.59794 16.2926 1.38506 10.1572 7.05649C8.93514 8.18618 2.01172 18.5046 8.17843 14.8382C9.29762 14.1728 12.5148 12.0258 11.3272 12.6066C9.35806 13.5696 8.32431 14.2049 6.97387 15.8744C6.70576 16.2059 5.64315 18.2119 5.10223 16.7789C3.99469 13.8448 2.66578 10.9333 1.62396 7.99213" stroke="white" stroke-width="2" stroke-linecap="round"/>
</svg>
