<svg width="65" height="35" viewBox="0 0 65 35" fill="none" xmlns="http://www.w3.org/2000/svg">
<path d="M4.11518 1.51927C0.212289 9.26739 0.520154 17.9857 12.8548 24.3334C22.3566 29.2233 33.9204 25.5692 32.3245 15.7333C31.9421 13.3767 28.7045 11.0725 26.3815 10.3408C22.7066 9.18325 20.4817 10.5757 19.5581 13.367C17.8802 18.4376 20.7529 27.1846 27.6613 30.7498C38.4724 36.329 48.512 33.3329 54.6742 27.6367C55.9017 26.502 62.8554 16.1384 56.6617 19.8208C55.5376 20.4892 52.3064 22.6456 53.4992 22.0623C55.4769 21.095 56.5152 20.457 57.8715 18.7801C58.1408 18.4472 59.2081 16.4324 59.7513 17.8717C60.8637 20.8186 62.1985 23.7428 63.2449 26.6969" stroke="white" stroke-width="2" stroke-linecap="round"/>
</svg>
