<svg width="104" height="54" viewBox="0 0 104 54" fill="none" xmlns="http://www.w3.org/2000/svg">
<path d="M100.995 52.7053C103.571 41.1289 104.776 34.985 93.2617 31.3595C87.4935 29.5432 84.0794 30.8075 81.339 35.554C79.5173 38.7093 84.677 40.7433 86.5464 37.5053C88.9858 33.2801 89.6772 28.1861 87.7705 23.5001C83.3177 12.5567 65.7926 11.9507 56.5974 14.4115C52.9439 15.3893 48.5576 21.528 54.6276 21.4802C58.9146 21.4465 60.1506 14.8265 59.2165 11.7035C54.985 -2.44355 38.3012 0.575801 27.6999 3.41309C24.1377 4.36645 16.6898 6.97724 14.1191 9.46368C12.0355 11.479 11.4106 0.496951 12.1991 6.18645C12.6554 9.47888 14.2954 14.8329 17.1301 16.9462C18.4974 17.9656 9.28824 15.0888 7.74052 14.9248C5.14373 14.6495 -1.06403 14.3751 2.01891 12.442C4.57149 10.8414 8.6027 7.94606 10.0353 5.46473" stroke="#DDDDDD" stroke-width="2" stroke-linecap="round"/>
</svg>
