<svg width="1920" height="703" viewBox="0 0 1920 703" fill="none" xmlns="http://www.w3.org/2000/svg">
<path fill-rule="evenodd" clip-rule="evenodd" d="M988.311 59.4891L0 59.489L4.49994e-08 58.9478L988.311 58.9479V59.4891Z" fill="black" fill-opacity="0.06"/>
<path fill-rule="evenodd" clip-rule="evenodd" d="M56.622 113.615L56.622 0H57.1367L57.1367 113.615H56.622Z" fill="black" fill-opacity="0.06"/>
<path fill-rule="evenodd" clip-rule="evenodd" d="M108.096 113.615L108.097 0H108.611L108.611 113.615H108.096Z" fill="black" fill-opacity="0.06"/>
<path fill-rule="evenodd" clip-rule="evenodd" d="M159.571 113.615L159.571 0H160.086L160.086 113.615H159.571Z" fill="black" fill-opacity="0.06"/>
<path fill-rule="evenodd" clip-rule="evenodd" d="M211.046 113.615L211.046 0H211.56L211.56 113.615H211.046Z" fill="black" fill-opacity="0.06"/>
<path fill-rule="evenodd" clip-rule="evenodd" d="M262.52 113.615L262.52 0H263.035L263.035 113.615H262.52Z" fill="black" fill-opacity="0.06"/>
<path fill-rule="evenodd" clip-rule="evenodd" d="M313.995 113.615L313.995 0H314.509L314.509 113.615H313.995Z" fill="black" fill-opacity="0.06"/>
<path fill-rule="evenodd" clip-rule="evenodd" d="M365.469 113.615L365.469 0H365.984L365.984 113.615H365.469Z" fill="black" fill-opacity="0.06"/>
<path fill-rule="evenodd" clip-rule="evenodd" d="M416.944 113.615L416.944 0H417.458L417.458 113.615H416.944Z" fill="black" fill-opacity="0.06"/>
<path fill-rule="evenodd" clip-rule="evenodd" d="M468.418 113.615L468.418 0H468.933L468.933 113.615H468.418Z" fill="black" fill-opacity="0.06"/>
<path fill-rule="evenodd" clip-rule="evenodd" d="M519.893 113.615L519.893 0H520.407V113.615H519.893Z" fill="black" fill-opacity="0.06"/>
<path fill-rule="evenodd" clip-rule="evenodd" d="M571.367 113.615V0H571.882V113.615H571.367Z" fill="black" fill-opacity="0.06"/>
<path fill-rule="evenodd" clip-rule="evenodd" d="M622.842 113.615V0H623.357V113.615H622.842Z" fill="black" fill-opacity="0.06"/>
<path fill-rule="evenodd" clip-rule="evenodd" d="M674.316 113.615V0H674.831V113.615H674.316Z" fill="black" fill-opacity="0.06"/>
<path fill-rule="evenodd" clip-rule="evenodd" d="M725.791 113.615V0H726.306V113.615H725.791Z" fill="black" fill-opacity="0.06"/>
<path fill-rule="evenodd" clip-rule="evenodd" d="M777.265 113.615V0H777.78V113.615H777.265Z" fill="black" fill-opacity="0.06"/>
<path fill-rule="evenodd" clip-rule="evenodd" d="M828.74 113.615V0H829.255V113.615H828.74Z" fill="black" fill-opacity="0.06"/>
<path fill-rule="evenodd" clip-rule="evenodd" d="M880.214 113.615V0H880.729V113.615H880.214Z" fill="black" fill-opacity="0.06"/>
<path fill-rule="evenodd" clip-rule="evenodd" d="M931.689 113.615V0H932.204V113.615H931.689Z" fill="black" fill-opacity="0.06"/>
<path fill-rule="evenodd" clip-rule="evenodd" d="M988.311 113.616L0 113.615L4.49994e-08 113.074L988.311 113.074V113.616Z" fill="black" fill-opacity="0.06"/>
<path fill-rule="evenodd" clip-rule="evenodd" d="M988.311 167.742L0 167.742L4.49994e-08 167.201L988.311 167.201V167.742Z" fill="black" fill-opacity="0.06"/>
<path fill-rule="evenodd" clip-rule="evenodd" d="M988.311 221.868L0 221.868L4.49994e-08 221.327L988.311 221.327V221.868Z" fill="black" fill-opacity="0.06"/>
<path fill-rule="evenodd" clip-rule="evenodd" d="M988.311 275.995L0 275.995L4.49994e-08 275.453L988.311 275.453V275.995Z" fill="black" fill-opacity="0.06"/>
<path fill-rule="evenodd" clip-rule="evenodd" d="M988.311 330.121L0 330.121L4.49994e-08 329.58L988.311 329.58V330.121Z" fill="black" fill-opacity="0.06"/>
<path fill-rule="evenodd" clip-rule="evenodd" d="M988.311 384.248L0 384.247L4.49994e-08 383.706L988.311 383.706V384.248Z" fill="black" fill-opacity="0.06"/>
<path fill-rule="evenodd" clip-rule="evenodd" d="M988.311 438.374L0 438.374L4.49994e-08 437.833L988.311 437.833V438.374Z" fill="black" fill-opacity="0.06"/>
<path fill-rule="evenodd" clip-rule="evenodd" d="M988.311 492.5L0 492.5L4.49994e-08 491.959L988.311 491.959V492.5Z" fill="black" fill-opacity="0.06"/>
<path fill-rule="evenodd" clip-rule="evenodd" d="M988.311 546.627L0 546.627L4.49994e-08 546.085L988.311 546.086V546.627Z" fill="black" fill-opacity="0.06"/>
<path fill-rule="evenodd" clip-rule="evenodd" d="M56.622 600.753L56.622 59.489H57.1367L57.1367 600.753H56.622Z" fill="black" fill-opacity="0.06"/>
<path fill-rule="evenodd" clip-rule="evenodd" d="M108.096 600.753L108.097 59.489H108.611L108.611 600.753H108.096Z" fill="black" fill-opacity="0.06"/>
<path fill-rule="evenodd" clip-rule="evenodd" d="M159.571 600.753L159.571 59.489H160.086L160.086 600.753H159.571Z" fill="black" fill-opacity="0.06"/>
<path fill-rule="evenodd" clip-rule="evenodd" d="M211.046 600.753L211.046 59.489H211.56L211.56 600.753H211.046Z" fill="black" fill-opacity="0.06"/>
<path fill-rule="evenodd" clip-rule="evenodd" d="M262.52 600.753L262.52 59.489H263.035L263.035 600.753H262.52Z" fill="black" fill-opacity="0.06"/>
<path fill-rule="evenodd" clip-rule="evenodd" d="M313.995 600.753L313.995 59.489H314.509L314.509 600.753H313.995Z" fill="black" fill-opacity="0.06"/>
<path fill-rule="evenodd" clip-rule="evenodd" d="M365.469 600.753L365.469 59.489H365.984L365.984 600.753H365.469Z" fill="black" fill-opacity="0.06"/>
<path fill-rule="evenodd" clip-rule="evenodd" d="M416.944 600.753L416.944 59.489H417.458L417.458 600.753H416.944Z" fill="black" fill-opacity="0.06"/>
<path fill-rule="evenodd" clip-rule="evenodd" d="M468.418 600.753L468.418 59.489H468.933L468.933 600.753H468.418Z" fill="black" fill-opacity="0.06"/>
<path fill-rule="evenodd" clip-rule="evenodd" d="M519.893 600.753L519.893 59.489H520.407V600.753H519.893Z" fill="black" fill-opacity="0.06"/>
<path fill-rule="evenodd" clip-rule="evenodd" d="M571.367 600.753V59.489H571.882V600.753H571.367Z" fill="black" fill-opacity="0.06"/>
<path fill-rule="evenodd" clip-rule="evenodd" d="M622.842 600.753V59.489H623.357V600.753H622.842Z" fill="black" fill-opacity="0.06"/>
<path fill-rule="evenodd" clip-rule="evenodd" d="M674.316 600.753V59.489H674.831V600.753H674.316Z" fill="black" fill-opacity="0.06"/>
<path fill-rule="evenodd" clip-rule="evenodd" d="M725.791 600.753V59.489H726.306V600.753H725.791Z" fill="black" fill-opacity="0.06"/>
<path fill-rule="evenodd" clip-rule="evenodd" d="M777.265 600.753V59.489H777.78V600.753H777.265Z" fill="black" fill-opacity="0.06"/>
<path fill-rule="evenodd" clip-rule="evenodd" d="M828.74 600.753V59.489H829.255V600.753H828.74Z" fill="black" fill-opacity="0.06"/>
<path fill-rule="evenodd" clip-rule="evenodd" d="M880.214 600.753V59.489H880.729V600.753H880.214Z" fill="black" fill-opacity="0.06"/>
<path fill-rule="evenodd" clip-rule="evenodd" d="M931.689 600.753V59.489H932.204V600.753H931.689Z" fill="black" fill-opacity="0.06"/>
<path fill-rule="evenodd" clip-rule="evenodd" d="M988.311 600.212L0 600.212L4.49994e-08 599.671L988.311 599.671V600.212Z" fill="black" fill-opacity="0.06"/>
<path fill-rule="evenodd" clip-rule="evenodd" d="M988.311 654.338L0 654.338L4.49994e-08 653.797L988.311 653.797V654.338Z" fill="black" fill-opacity="0.06"/>
<path fill-rule="evenodd" clip-rule="evenodd" d="M56.622 703L56.622 546.085H57.1367L57.1367 703H56.622Z" fill="black" fill-opacity="0.06"/>
<path fill-rule="evenodd" clip-rule="evenodd" d="M108.096 703L108.097 546.085H108.611L108.611 703H108.096Z" fill="black" fill-opacity="0.06"/>
<path fill-rule="evenodd" clip-rule="evenodd" d="M159.571 703L159.571 546.085H160.086L160.086 703H159.571Z" fill="black" fill-opacity="0.06"/>
<path fill-rule="evenodd" clip-rule="evenodd" d="M211.046 703L211.046 546.085H211.56L211.56 703H211.046Z" fill="black" fill-opacity="0.06"/>
<path fill-rule="evenodd" clip-rule="evenodd" d="M262.52 703L262.52 546.085H263.035L263.035 703H262.52Z" fill="black" fill-opacity="0.06"/>
<path fill-rule="evenodd" clip-rule="evenodd" d="M313.995 703L313.995 546.085H314.509L314.509 703H313.995Z" fill="black" fill-opacity="0.06"/>
<path fill-rule="evenodd" clip-rule="evenodd" d="M365.469 703L365.469 546.085H365.984L365.984 703H365.469Z" fill="black" fill-opacity="0.06"/>
<path fill-rule="evenodd" clip-rule="evenodd" d="M416.944 703L416.944 546.085H417.458L417.458 703H416.944Z" fill="black" fill-opacity="0.06"/>
<path fill-rule="evenodd" clip-rule="evenodd" d="M468.418 703L468.418 546.085H468.933L468.933 703H468.418Z" fill="black" fill-opacity="0.06"/>
<path fill-rule="evenodd" clip-rule="evenodd" d="M519.893 703L519.893 546.085H520.407V703H519.893Z" fill="black" fill-opacity="0.06"/>
<path fill-rule="evenodd" clip-rule="evenodd" d="M571.367 703V546.085H571.882V703H571.367Z" fill="black" fill-opacity="0.06"/>
<path fill-rule="evenodd" clip-rule="evenodd" d="M622.842 703V546.085H623.357V703H622.842Z" fill="black" fill-opacity="0.06"/>
<path fill-rule="evenodd" clip-rule="evenodd" d="M674.316 703V546.085H674.831V703H674.316Z" fill="black" fill-opacity="0.06"/>
<path fill-rule="evenodd" clip-rule="evenodd" d="M725.791 703V546.085H726.306V703H725.791Z" fill="black" fill-opacity="0.06"/>
<path fill-rule="evenodd" clip-rule="evenodd" d="M777.265 703V546.085H777.78V703H777.265Z" fill="black" fill-opacity="0.06"/>
<path fill-rule="evenodd" clip-rule="evenodd" d="M828.74 703V546.085H829.255V703H828.74Z" fill="black" fill-opacity="0.06"/>
<path fill-rule="evenodd" clip-rule="evenodd" d="M880.214 703V546.085H880.729V703H880.214Z" fill="black" fill-opacity="0.06"/>
<path fill-rule="evenodd" clip-rule="evenodd" d="M931.689 703V546.085H932.204V703H931.689Z" fill="black" fill-opacity="0.06"/>
<path fill-rule="evenodd" clip-rule="evenodd" d="M1920 59.4891L931.689 59.489V58.9478L1920 58.9479V59.4891Z" fill="black" fill-opacity="0.06"/>
<path fill-rule="evenodd" clip-rule="evenodd" d="M988.311 113.616V0H988.826V113.615L988.311 113.616Z" fill="black" fill-opacity="0.06"/>
<path fill-rule="evenodd" clip-rule="evenodd" d="M1039.79 113.615V0H1040.3V113.615H1039.79Z" fill="black" fill-opacity="0.06"/>
<path fill-rule="evenodd" clip-rule="evenodd" d="M1091.26 113.615V0H1091.77V113.615H1091.26Z" fill="black" fill-opacity="0.06"/>
<path fill-rule="evenodd" clip-rule="evenodd" d="M1142.73 113.615V0H1143.25V113.615H1142.73Z" fill="black" fill-opacity="0.06"/>
<path fill-rule="evenodd" clip-rule="evenodd" d="M1194.21 113.615V0H1194.72V113.615H1194.21Z" fill="black" fill-opacity="0.06"/>
<path fill-rule="evenodd" clip-rule="evenodd" d="M1245.68 113.615V0H1246.2V113.615H1245.68Z" fill="black" fill-opacity="0.06"/>
<path fill-rule="evenodd" clip-rule="evenodd" d="M1297.16 113.615V0H1297.67V113.615H1297.16Z" fill="black" fill-opacity="0.06"/>
<path fill-rule="evenodd" clip-rule="evenodd" d="M1348.63 113.615V0H1349.15V113.615H1348.63Z" fill="black" fill-opacity="0.06"/>
<path fill-rule="evenodd" clip-rule="evenodd" d="M1400.11 113.615V0H1400.62V113.615H1400.11Z" fill="black" fill-opacity="0.06"/>
<path fill-rule="evenodd" clip-rule="evenodd" d="M1451.58 113.615V0H1452.1V113.615H1451.58Z" fill="black" fill-opacity="0.06"/>
<path fill-rule="evenodd" clip-rule="evenodd" d="M1503.06 113.615V0H1503.57V113.615H1503.06Z" fill="black" fill-opacity="0.06"/>
<path fill-rule="evenodd" clip-rule="evenodd" d="M1554.53 113.615V0H1555.05V113.615H1554.53Z" fill="black" fill-opacity="0.06"/>
<path fill-rule="evenodd" clip-rule="evenodd" d="M1606.01 113.615V0H1606.52V113.615H1606.01Z" fill="black" fill-opacity="0.06"/>
<path fill-rule="evenodd" clip-rule="evenodd" d="M1657.48 113.615V0H1657.99V113.615H1657.48Z" fill="black" fill-opacity="0.06"/>
<path fill-rule="evenodd" clip-rule="evenodd" d="M1708.95 113.615V0H1709.47V113.615H1708.95Z" fill="black" fill-opacity="0.06"/>
<path fill-rule="evenodd" clip-rule="evenodd" d="M1760.43 113.615V0H1760.94V113.615H1760.43Z" fill="black" fill-opacity="0.06"/>
<path fill-rule="evenodd" clip-rule="evenodd" d="M1811.9 113.615V0H1812.42V113.615H1811.9Z" fill="black" fill-opacity="0.06"/>
<path fill-rule="evenodd" clip-rule="evenodd" d="M1863.38 113.615V0H1863.89V113.615H1863.38Z" fill="black" fill-opacity="0.06"/>
<path fill-rule="evenodd" clip-rule="evenodd" d="M1920 113.616L931.689 113.615V113.074L1920 113.074V113.616Z" fill="black" fill-opacity="0.06"/>
<path fill-rule="evenodd" clip-rule="evenodd" d="M1920 167.742L931.689 167.742V167.201L1920 167.201V167.742Z" fill="black" fill-opacity="0.06"/>
<path fill-rule="evenodd" clip-rule="evenodd" d="M1920 221.868L931.689 221.868V221.327L1920 221.327V221.868Z" fill="black" fill-opacity="0.06"/>
<path fill-rule="evenodd" clip-rule="evenodd" d="M1920 275.995L931.689 275.995V275.453L1920 275.453V275.995Z" fill="black" fill-opacity="0.06"/>
<path fill-rule="evenodd" clip-rule="evenodd" d="M1920 330.121L931.689 330.121V329.58L1920 329.58V330.121Z" fill="black" fill-opacity="0.06"/>
<path fill-rule="evenodd" clip-rule="evenodd" d="M1920 384.248L931.689 384.247V383.706L1920 383.706V384.248Z" fill="black" fill-opacity="0.06"/>
<path fill-rule="evenodd" clip-rule="evenodd" d="M1920 438.374L931.689 438.374V437.833L1920 437.833V438.374Z" fill="black" fill-opacity="0.06"/>
<path fill-rule="evenodd" clip-rule="evenodd" d="M1920 492.5L931.689 492.5V491.959L1920 491.959V492.5Z" fill="black" fill-opacity="0.06"/>
<path fill-rule="evenodd" clip-rule="evenodd" d="M1920 546.627L931.689 546.627V546.085L1920 546.086V546.627Z" fill="black" fill-opacity="0.06"/>
<path fill-rule="evenodd" clip-rule="evenodd" d="M988.311 600.753V59.4891L988.826 59.489V600.753H988.311Z" fill="black" fill-opacity="0.06"/>
<path fill-rule="evenodd" clip-rule="evenodd" d="M1039.79 600.753V59.489H1040.3V600.753H1039.79Z" fill="black" fill-opacity="0.06"/>
<path fill-rule="evenodd" clip-rule="evenodd" d="M1091.26 600.753V59.489H1091.77V600.753H1091.26Z" fill="black" fill-opacity="0.06"/>
<path fill-rule="evenodd" clip-rule="evenodd" d="M1142.73 600.753V59.489H1143.25V600.753H1142.73Z" fill="black" fill-opacity="0.06"/>
<path fill-rule="evenodd" clip-rule="evenodd" d="M1194.21 600.753V59.489H1194.72V600.753H1194.21Z" fill="black" fill-opacity="0.06"/>
<path fill-rule="evenodd" clip-rule="evenodd" d="M1245.68 600.753V59.489H1246.2V600.753H1245.68Z" fill="black" fill-opacity="0.06"/>
<path fill-rule="evenodd" clip-rule="evenodd" d="M1297.16 600.753V59.489H1297.67V600.753H1297.16Z" fill="black" fill-opacity="0.06"/>
<path fill-rule="evenodd" clip-rule="evenodd" d="M1348.63 600.753V59.489H1349.15V600.753H1348.63Z" fill="black" fill-opacity="0.06"/>
<path fill-rule="evenodd" clip-rule="evenodd" d="M1400.11 600.753V59.489H1400.62V600.753H1400.11Z" fill="black" fill-opacity="0.06"/>
<path fill-rule="evenodd" clip-rule="evenodd" d="M1451.58 600.753V59.489H1452.1V600.753H1451.58Z" fill="black" fill-opacity="0.06"/>
<path fill-rule="evenodd" clip-rule="evenodd" d="M1503.06 600.753V59.489H1503.57V600.753H1503.06Z" fill="black" fill-opacity="0.06"/>
<path fill-rule="evenodd" clip-rule="evenodd" d="M1554.53 600.753V59.489H1555.05V600.753H1554.53Z" fill="black" fill-opacity="0.06"/>
<path fill-rule="evenodd" clip-rule="evenodd" d="M1606.01 600.753V59.489H1606.52V600.753H1606.01Z" fill="black" fill-opacity="0.06"/>
<path fill-rule="evenodd" clip-rule="evenodd" d="M1657.48 600.753V59.489H1657.99V600.753H1657.48Z" fill="black" fill-opacity="0.06"/>
<path fill-rule="evenodd" clip-rule="evenodd" d="M1708.95 600.753V59.489H1709.47V600.753H1708.95Z" fill="black" fill-opacity="0.06"/>
<path fill-rule="evenodd" clip-rule="evenodd" d="M1760.43 600.753V59.489H1760.94V600.753H1760.43Z" fill="black" fill-opacity="0.06"/>
<path fill-rule="evenodd" clip-rule="evenodd" d="M1811.9 600.753V59.489H1812.42V600.753H1811.9Z" fill="black" fill-opacity="0.06"/>
<path fill-rule="evenodd" clip-rule="evenodd" d="M1863.38 600.753V59.489H1863.89V600.753H1863.38Z" fill="black" fill-opacity="0.06"/>
<path fill-rule="evenodd" clip-rule="evenodd" d="M1920 600.212L931.689 600.212V599.671L1920 599.671V600.212Z" fill="black" fill-opacity="0.06"/>
<path fill-rule="evenodd" clip-rule="evenodd" d="M1920 654.338L931.689 654.338V653.797L1920 653.797V654.338Z" fill="black" fill-opacity="0.06"/>
<path fill-rule="evenodd" clip-rule="evenodd" d="M988.311 703V546.086L988.826 546.085V703H988.311Z" fill="black" fill-opacity="0.06"/>
<path fill-rule="evenodd" clip-rule="evenodd" d="M1039.79 703V546.085H1040.3V703H1039.79Z" fill="black" fill-opacity="0.06"/>
<path fill-rule="evenodd" clip-rule="evenodd" d="M1091.26 703V546.085H1091.77V703H1091.26Z" fill="black" fill-opacity="0.06"/>
<path fill-rule="evenodd" clip-rule="evenodd" d="M1142.73 703V546.085H1143.25V703H1142.73Z" fill="black" fill-opacity="0.06"/>
<path fill-rule="evenodd" clip-rule="evenodd" d="M1194.21 703V546.085H1194.72V703H1194.21Z" fill="black" fill-opacity="0.06"/>
<path fill-rule="evenodd" clip-rule="evenodd" d="M1245.68 703V546.085H1246.2V703H1245.68Z" fill="black" fill-opacity="0.06"/>
<path fill-rule="evenodd" clip-rule="evenodd" d="M1297.16 703V546.085H1297.67V703H1297.16Z" fill="black" fill-opacity="0.06"/>
<path fill-rule="evenodd" clip-rule="evenodd" d="M1348.63 703V546.085H1349.15V703H1348.63Z" fill="black" fill-opacity="0.06"/>
<path fill-rule="evenodd" clip-rule="evenodd" d="M1400.11 703V546.085H1400.62V703H1400.11Z" fill="black" fill-opacity="0.06"/>
<path fill-rule="evenodd" clip-rule="evenodd" d="M1451.58 703V546.085H1452.1V703H1451.58Z" fill="black" fill-opacity="0.06"/>
<path fill-rule="evenodd" clip-rule="evenodd" d="M1503.06 703V546.085H1503.57V703H1503.06Z" fill="black" fill-opacity="0.06"/>
<path fill-rule="evenodd" clip-rule="evenodd" d="M1554.53 703V546.085H1555.05V703H1554.53Z" fill="black" fill-opacity="0.06"/>
<path fill-rule="evenodd" clip-rule="evenodd" d="M1606.01 703V546.085H1606.52V703H1606.01Z" fill="black" fill-opacity="0.06"/>
<path fill-rule="evenodd" clip-rule="evenodd" d="M1657.48 703V546.085H1657.99V703H1657.48Z" fill="black" fill-opacity="0.06"/>
<path fill-rule="evenodd" clip-rule="evenodd" d="M1708.95 703V546.085H1709.47V703H1708.95Z" fill="black" fill-opacity="0.06"/>
<path fill-rule="evenodd" clip-rule="evenodd" d="M1760.43 703V546.085H1760.94V703H1760.43Z" fill="black" fill-opacity="0.06"/>
<path fill-rule="evenodd" clip-rule="evenodd" d="M1811.9 703V546.085H1812.42V703H1811.9Z" fill="black" fill-opacity="0.06"/>
<path fill-rule="evenodd" clip-rule="evenodd" d="M1863.38 703V546.085H1863.89V703H1863.38Z" fill="black" fill-opacity="0.06"/>
</svg>
