<svg width="960" height="650" viewBox="0 0 960 650" fill="none" xmlns="http://www.w3.org/2000/svg">
<path fill-rule="evenodd" clip-rule="evenodd" d="M960 26.4118L0 26.4117L4.37103e-08 25.9113L960 25.9113V26.4118Z" fill="#E5E5E5"/>
<path fill-rule="evenodd" clip-rule="evenodd" d="M55 76.4575L55 0H55.5L55.5 76.4575H55Z" fill="#E5E5E5"/>
<path fill-rule="evenodd" clip-rule="evenodd" d="M105 76.4575L105 0H105.5L105.5 76.4575H105Z" fill="#E5E5E5"/>
<path fill-rule="evenodd" clip-rule="evenodd" d="M155 76.4575L155 0H155.5L155.5 76.4575H155Z" fill="#E5E5E5"/>
<path fill-rule="evenodd" clip-rule="evenodd" d="M205 76.4575L205 0H205.5L205.5 76.4575H205Z" fill="#E5E5E5"/>
<path fill-rule="evenodd" clip-rule="evenodd" d="M255 76.4575L255 0H255.5L255.5 76.4575H255Z" fill="#E5E5E5"/>
<path fill-rule="evenodd" clip-rule="evenodd" d="M305 76.4575L305 0H305.5L305.5 76.4575H305Z" fill="#E5E5E5"/>
<path fill-rule="evenodd" clip-rule="evenodd" d="M355 76.4575L355 0H355.5L355.5 76.4575H355Z" fill="#E5E5E5"/>
<path fill-rule="evenodd" clip-rule="evenodd" d="M405 76.4575L405 0H405.5L405.5 76.4575H405Z" fill="#E5E5E5"/>
<path fill-rule="evenodd" clip-rule="evenodd" d="M455 76.4575L455 0H455.5L455.5 76.4575H455Z" fill="#E5E5E5"/>
<path fill-rule="evenodd" clip-rule="evenodd" d="M505 76.4575L505 0H505.5L505.5 76.4575H505Z" fill="#E5E5E5"/>
<path fill-rule="evenodd" clip-rule="evenodd" d="M555 76.4575V0H555.5V76.4575H555Z" fill="#E5E5E5"/>
<path fill-rule="evenodd" clip-rule="evenodd" d="M605 76.4575V0H605.5V76.4575H605Z" fill="#E5E5E5"/>
<path fill-rule="evenodd" clip-rule="evenodd" d="M655 76.4575V0H655.5V76.4575H655Z" fill="#E5E5E5"/>
<path fill-rule="evenodd" clip-rule="evenodd" d="M705 76.4575V0H705.5V76.4575H705Z" fill="#E5E5E5"/>
<path fill-rule="evenodd" clip-rule="evenodd" d="M755 76.4575V0H755.5V76.4575H755Z" fill="#E5E5E5"/>
<path fill-rule="evenodd" clip-rule="evenodd" d="M805 76.4575V0H805.5V76.4575H805Z" fill="#E5E5E5"/>
<path fill-rule="evenodd" clip-rule="evenodd" d="M855 76.4575V0H855.5V76.4575H855Z" fill="#E5E5E5"/>
<path fill-rule="evenodd" clip-rule="evenodd" d="M905 76.4575V0H905.5V76.4575H905Z" fill="#E5E5E5"/>
<path fill-rule="evenodd" clip-rule="evenodd" d="M960 76.4576L0 76.4575L4.37103e-08 75.957L960 75.9571V76.4576Z" fill="#E5E5E5"/>
<path fill-rule="evenodd" clip-rule="evenodd" d="M960 126.503L0 126.503L4.37103e-08 126.003L960 126.003V126.503Z" fill="#E5E5E5"/>
<path fill-rule="evenodd" clip-rule="evenodd" d="M960 176.549L0 176.549L4.37103e-08 176.049L960 176.049V176.549Z" fill="#E5E5E5"/>
<path fill-rule="evenodd" clip-rule="evenodd" d="M960 226.595L0 226.595L4.37103e-08 226.094L960 226.094V226.595Z" fill="#E5E5E5"/>
<path fill-rule="evenodd" clip-rule="evenodd" d="M960 276.641L0 276.64L4.37103e-08 276.14L960 276.14V276.641Z" fill="#E5E5E5"/>
<path fill-rule="evenodd" clip-rule="evenodd" d="M960 326.686L0 326.686L4.37103e-08 326.186L960 326.186V326.686Z" fill="#E5E5E5"/>
<path fill-rule="evenodd" clip-rule="evenodd" d="M960 376.732L0 376.732L4.37103e-08 376.232L960 376.232V376.732Z" fill="#E5E5E5"/>
<path fill-rule="evenodd" clip-rule="evenodd" d="M960 426.778L0 426.778L4.37103e-08 426.277L960 426.277V426.778Z" fill="#E5E5E5"/>
<path fill-rule="evenodd" clip-rule="evenodd" d="M960 476.824L0 476.823L4.37103e-08 476.323L960 476.323V476.824Z" fill="#E5E5E5"/>
<path fill-rule="evenodd" clip-rule="evenodd" d="M55 526.869L55 26.4117H55.5L55.5 526.869H55Z" fill="#E5E5E5"/>
<path fill-rule="evenodd" clip-rule="evenodd" d="M105 526.869L105 26.4117H105.5L105.5 526.869H105Z" fill="#E5E5E5"/>
<path fill-rule="evenodd" clip-rule="evenodd" d="M155 526.869L155 26.4117H155.5L155.5 526.869H155Z" fill="#E5E5E5"/>
<path fill-rule="evenodd" clip-rule="evenodd" d="M205 526.869L205 26.4117H205.5L205.5 526.869H205Z" fill="#E5E5E5"/>
<path fill-rule="evenodd" clip-rule="evenodd" d="M255 526.869L255 26.4117H255.5L255.5 526.869H255Z" fill="#E5E5E5"/>
<path fill-rule="evenodd" clip-rule="evenodd" d="M305 526.869L305 26.4117H305.5L305.5 526.869H305Z" fill="#E5E5E5"/>
<path fill-rule="evenodd" clip-rule="evenodd" d="M355 526.869L355 26.4117H355.5L355.5 526.869H355Z" fill="#E5E5E5"/>
<path fill-rule="evenodd" clip-rule="evenodd" d="M405 526.869L405 26.4117H405.5L405.5 526.869H405Z" fill="#E5E5E5"/>
<path fill-rule="evenodd" clip-rule="evenodd" d="M455 526.869L455 26.4117H455.5L455.5 526.869H455Z" fill="#E5E5E5"/>
<path fill-rule="evenodd" clip-rule="evenodd" d="M505 526.869L505 26.4117H505.5L505.5 526.869H505Z" fill="#E5E5E5"/>
<path fill-rule="evenodd" clip-rule="evenodd" d="M555 526.869V26.4117H555.5V526.869H555Z" fill="#E5E5E5"/>
<path fill-rule="evenodd" clip-rule="evenodd" d="M605 526.869V26.4117H605.5V526.869H605Z" fill="#E5E5E5"/>
<path fill-rule="evenodd" clip-rule="evenodd" d="M655 526.869V26.4117H655.5V526.869H655Z" fill="#E5E5E5"/>
<path fill-rule="evenodd" clip-rule="evenodd" d="M705 526.869V26.4117H705.5V526.869H705Z" fill="#E5E5E5"/>
<path fill-rule="evenodd" clip-rule="evenodd" d="M755 526.869V26.4117H755.5V526.869H755Z" fill="#E5E5E5"/>
<path fill-rule="evenodd" clip-rule="evenodd" d="M805 526.869V26.4117H805.5V526.869H805Z" fill="#E5E5E5"/>
<path fill-rule="evenodd" clip-rule="evenodd" d="M855 526.869V26.4117H855.5V526.869H855Z" fill="#E5E5E5"/>
<path fill-rule="evenodd" clip-rule="evenodd" d="M905 526.869V26.4117H905.5V526.869H905Z" fill="#E5E5E5"/>
<path fill-rule="evenodd" clip-rule="evenodd" d="M960 526.369L0 526.369L4.37103e-08 525.868L960 525.868V526.369Z" fill="#E5E5E5"/>
<path fill-rule="evenodd" clip-rule="evenodd" d="M960 576.415L0 576.414L4.37103e-08 575.914L960 575.914V576.415Z" fill="#E5E5E5"/>
<path fill-rule="evenodd" clip-rule="evenodd" d="M960 626.46L0 626.46L4.37103e-08 625.96L960 625.96V626.46Z" fill="#E5E5E5"/>
<path fill-rule="evenodd" clip-rule="evenodd" d="M55 650L55 476.323H55.5L55.5 650H55Z" fill="#E5E5E5"/>
<path fill-rule="evenodd" clip-rule="evenodd" d="M105 650L105 476.323H105.5L105.5 650H105Z" fill="#E5E5E5"/>
<path fill-rule="evenodd" clip-rule="evenodd" d="M155 650L155 476.323H155.5L155.5 650H155Z" fill="#E5E5E5"/>
<path fill-rule="evenodd" clip-rule="evenodd" d="M205 650L205 476.323H205.5L205.5 650H205Z" fill="#E5E5E5"/>
<path fill-rule="evenodd" clip-rule="evenodd" d="M255 650L255 476.323H255.5L255.5 650H255Z" fill="#E5E5E5"/>
<path fill-rule="evenodd" clip-rule="evenodd" d="M305 650L305 476.323H305.5L305.5 650H305Z" fill="#E5E5E5"/>
<path fill-rule="evenodd" clip-rule="evenodd" d="M355 650L355 476.323H355.5L355.5 650H355Z" fill="#E5E5E5"/>
<path fill-rule="evenodd" clip-rule="evenodd" d="M405 650L405 476.323H405.5L405.5 650H405Z" fill="#E5E5E5"/>
<path fill-rule="evenodd" clip-rule="evenodd" d="M455 650L455 476.323H455.5L455.5 650H455Z" fill="#E5E5E5"/>
<path fill-rule="evenodd" clip-rule="evenodd" d="M505 650L505 476.323H505.5L505.5 650H505Z" fill="#E5E5E5"/>
<path fill-rule="evenodd" clip-rule="evenodd" d="M555 650V476.323H555.5V650H555Z" fill="#E5E5E5"/>
<path fill-rule="evenodd" clip-rule="evenodd" d="M605 650V476.323H605.5V650H605Z" fill="#E5E5E5"/>
<path fill-rule="evenodd" clip-rule="evenodd" d="M655 650V476.323H655.5V650H655Z" fill="#E5E5E5"/>
<path fill-rule="evenodd" clip-rule="evenodd" d="M705 650V476.323H705.5V650H705Z" fill="#E5E5E5"/>
<path fill-rule="evenodd" clip-rule="evenodd" d="M755 650V476.323H755.5V650H755Z" fill="#E5E5E5"/>
<path fill-rule="evenodd" clip-rule="evenodd" d="M805 650V476.323H805.5V650H805Z" fill="#E5E5E5"/>
<path fill-rule="evenodd" clip-rule="evenodd" d="M855 650V476.323H855.5V650H855Z" fill="#E5E5E5"/>
<path fill-rule="evenodd" clip-rule="evenodd" d="M905 650V476.323H905.5V650H905Z" fill="#E5E5E5"/>
</svg>
