<svg width="52" height="50" viewBox="0 0 52 50" fill="none" xmlns="http://www.w3.org/2000/svg">
<path d="M51.5337 49.984C-64.8544 49.9977 116.427 49.9764 0.0390625 49.9901C0.0390625 31.2619 0.0390625 20.7618 0.0390625 2.03365C11.2391 1.63407 16.5034 4.56456 19.5034 10.5601L30.0034 38.531C34.0374 47.9339 45.4209 49.4481 51.5337 49.984Z" fill="white"/>
<path fill-rule="evenodd" clip-rule="evenodd" d="M13.246 1.97507C16.582 3.50673 18.8114 5.90932 20.3979 9.07986L20.4213 9.12671L30.9315 37.1248C33.053 42.053 36.807 44.7979 40.7367 46.3047C44.6934 47.8219 48.798 48.068 51.4731 47.987C51.4731 47.987 51.51 49.2041 51.5337 49.984C48.7087 50.0695 44.3134 49.8162 40.02 48.1699C35.7052 46.5155 31.4643 43.4388 29.0842 37.891L29.0751 37.8698C29.0751 37.8698 19.997 12.7278 18.5857 9.92679C17.1743 7.1258 15.2591 5.09817 12.4108 3.79043C8.49554 1.49889 0.0390625 2.03365 0.0390625 2.03365C0.0390625 20.7618 0.0390625 31.2619 0.0390625 49.9901L0.0408325 0.0347445C5.70805 -0.165809 9.9493 0.461448 13.246 1.97507Z" fill="#215ADA"/>
</svg>
