<svg width="52" height="50" viewBox="0 0 52 50" fill="none" xmlns="http://www.w3.org/2000/svg">
<path d="M51.4946 49.9855C-64.8935 49.9992 116.388 49.9778 0 49.9915C0 31.2634 0 20.7633 0 2.03512C11.2 1.63553 16.4643 4.56602 19.4643 10.5616L29.9643 38.5325C33.9983 47.9354 45.3818 49.4496 51.4946 49.9855Z" fill="white"/>
<path fill-rule="evenodd" clip-rule="evenodd" d="M13.207 1.97653C16.543 3.50819 18.7724 5.91079 20.3588 9.08133L20.3822 9.12817L30.8924 37.1262C33.0139 42.0544 36.768 44.7994 40.6976 46.3062C44.6543 47.8233 48.7589 48.0695 51.434 47.9885C51.434 47.9885 51.4709 49.2056 51.4946 49.9855C48.6697 50.071 44.2743 49.8176 39.981 48.1714C35.6662 46.517 31.4253 43.4402 29.0451 37.8924L29.0361 37.8712C29.0361 37.8712 19.9579 12.7292 18.5466 9.92825C17.1352 7.12726 15.2201 5.09963 12.3717 3.7919C8.45648 1.50036 0 2.03512 0 2.03512C0 20.7633 0 31.2634 0 49.9915L0.00177002 0.0362094C5.66899 -0.164344 9.91024 0.462912 13.207 1.97653Z" fill="#E7E9EC"/>
</svg>
